#!OML:ASF E:\Mandelcareful walks\Project 1\Capture day 1\Session 1\Subject1.ASF
:FULLY-SPECIFIED
:DEGREES
813
root 27.7386 14.2687 1.09594 -3.69111 119.323 -25.6391
lowerback 41.4217 0.222753 3.91827
upperback 10.1549 3.77141 -0.656212
thorax -8.21909 2.55188 -4.37537
lowerneck -32.878 -10.7899 -11.5179
upperneck 19.0828 -9.99381 2.69103
head 12.3172 -4.92522 0.838345
rclavicle -7.31528e-014 -7.63333e-014
rhumerus 12.501 67.1267 -85.4553
rradius 45.259
rwrist -50.5503
rhand -27.9363 -62.3316
rfingers 7.12502
rthumb -1.32442 -267.693
lclavicle -7.31528e-014 -7.63333e-014
lhumerus -29.3861 -26.0464 89.7855
lradius 69.2234
lwrist 64.0752
lhand -11.7629 -9.51869
lfingers 7.12502
lthumb 14.2854 19.9699
rfemur -63.0922 -10.7761 10.6215
rtibia 79.0852
rfoot -31.8878 -10.1517
rtoes -2.78185
lfemur -50.8343 15.3452 -17.1331
ltibia 64.4807
lfoot -22.6285 14.6085
ltoes -34.4441
814
root 27.8205 14.3178 1.04577 -4.29958 119.218 -25.426
lowerback 41.894 0.31434 3.4096
upperback 10.194 3.69501 -0.996114
thorax -8.33143 2.53961 -4.46279
lowerneck -32.6947 -10.7582 -11.3082
upperneck 18.8369 -10.0063 2.48691
head 12.1654 -4.94403 0.738609
rclavicle 9.85972e-014 -3.33958e-014
rhumerus 12.3097 67.1313 -85.5901
rradius 46.5353
rwrist -51.1211
rhand -28.078 -62.0765
rfingers 7.12502
rthumb -1.46124 -267.949
lclavicle 9.85972e-014 -3.33958e-014
lhumerus -29.6351 -26.6372 88.9368
lradius 70.9679
lwrist 64.4888
lhand -12.5601 -9.04287
lfingers 7.12502
lthumb 13.5172 20.4984
rfemur -61.3134 -10.6852 10.5928
rtibia 78.6109
rfoot -32.3614 -10.2914
rtoes -3.90402
lfemur -51.0511 15.2658 -17.3908
ltibia 64.3907
lfoot -22.3295 12.8506
ltoes -32.822
815
root 27.8371 14.2961 0.999132 -3.39642 119.526 -25.2774
lowerback 40.6156 0.356582 3.08727
upperback 10.0183 3.44864 -1.28401
thorax -8.1594 2.39969 -4.47115
lowerneck -32.285 -10.9445 -11.7075
upperneck 18.2753 -10.3187 3.14622
head 11.9624 -5.02287 1.00431
rclavicle 1.30403e-013 5.725e-014
rhumerus 11.8875 67.0969 -85.8718
rradius 47.6228
rwrist -51.4925
rhand -28.2391 -61.9696
rfingers 7.12502
rthumb -1.61686 -268.057
lclavicle 1.30403e-013 5.725e-014
lhumerus -29.9774 -26.7597 88.4261
lradius 72.7116
lwrist 64.8171
lhand -13.3284 -8.01304
lfingers 7.12502
lthumb 12.7766 21.576
rfemur -62.1597 -11.3172 10.7188
rtibia 78.6678
rfoot -32.2579 -10.4309
rtoes -4.64259
lfemur -53.7364 14.7114 -18.242
ltibia 64.7099
lfoot -21.5976 11.3583
ltoes -31.3793
816
root 27.9021 14.313 0.931906 -3.13218 119.314 -24.6232
lowerback 40.2628 0.486543 2.96579
upperback 10.1195 3.51666 -1.61385
thorax -7.92054 2.45131 -4.77116
lowerneck -32.1821 -11.2695 -12.0341
upperneck 17.8837 -10.7924 3.74718
head 11.8852 -5.17258 1.18829
rclavicle 4.77083e-015 7.95139e-014
rhumerus 12.2282 66.7761 -85.4746
rradius 48.5383
rwrist -51.8322
rhand -28.0349 -62.0015
rfingers 7.12502
rthumb -1.41967 -268.023
lclavicle 4.77083e-015 7.95139e-014
lhumerus -29.816 -27.2839 87.8171
lradius 73.8587
lwrist 65.0949
lhand -13.9041 -7.41564
lfingers 7.12502
lthumb 12.2216 22.2073
rfemur -61.4036 -11.2521 10.9874
rtibia 78.5409
rfoot -32.6003 -10.786
rtoes -5.42317
lfemur -54.6077 14.6708 -18.4874
ltibia 64.918
lfoot -21.1397 10.1569
ltoes -30.27
817
root 27.9718 14.331 0.858062 -2.48973 119.113 -23.322
lowerback 40.1713 0.561085 2.85313
upperback 10.1062 3.54543 -1.73255
thorax -7.90359 2.46711 -4.84878
lowerneck -31.7398 -11.4415 -12.0864
upperneck 17.2604 -11.096 3.9254
head 11.6092 -5.29083 1.2245
rclavicle 8.5875e-014 5.40694e-014
rhumerus 12.3085 66.9343 -85.1838
rradius 49.4007
rwrist -52.2541
rhand -27.8321 -61.7208
rfingers 7.12502
rthumb -1.22375 -268.303
lclavicle 8.5875e-014 5.40694e-014
lhumerus -29.9542 -27.7349 87.5037
lradius 74.6047
lwrist 65.2782
lhand -14.6315 -7.2293
lfingers 7.12502
lthumb 11.5201 22.4341
rfemur -60.2468 -11.2041 11.5732
rtibia 78.4332
rfoot -33.1457 -11.1417
rtoes -6.21536
lfemur -55.2053 14.6328 -18.3211
ltibia 65.2239
lfoot -20.6757 9.14923
ltoes -29.0913
818
root 28.023 14.3206 0.776007 -1.69848 118.799 -22.2019
lowerback 39.8374 0.822403 2.95876
upperback 9.97803 3.81468 -2.13092
thorax -7.89174 2.5848 -5.42924
lowerneck -31.093 -11.5856 -11.3097
upperneck 16.536 -11.6719 3.77993
head 11.2109 -5.52994 0.977749
rclavicle -1.04958e-013 2.06736e-014
rhumerus 11.0221 65.4568 -86.9093
rradius 49.6239
rwrist -51.6537
rhand -27.6432 -61.2206
rfingers 7.12502
rthumb -1.04131 -268.802
lclavicle -1.04958e-013 2.06736e-014
lhumerus -30.0253 -29.1405 87.0106
lradius 75.0388
lwrist 65.3518
lhand -14.316 -7.53091
lfingers 7.12502
lthumb 11.8244 22.1153
rfemur -59.652 -11.2275 12.0921
rtibia 78.4069
rfoot -33.4228 -11.1418
rtoes -6.40741
lfemur -56.1439 14.5347 -18.2465
ltibia 65.568
lfoot -20.1525 8.44454
ltoes -29.2092
819
root 28.0812 14.3081 0.698887 -1.25675 118.573 -21.4023
lowerback 39.4587 0.987775 2.33279
upperback 9.91305 3.73471 -2.18173
thorax -7.87671 2.53675 -5.11549
lowerneck -31.1452 -11.5628 -11.7691
upperneck 16.25 -11.5432 4.24432
head 11.1627 -5.43549 1.2443
rclavicle -5.56597e-014 8.26944e-014
rhumerus 10.57 65.3588 -87.3681
rradius 50.0461
rwrist -51.5001
rhand -27.1546 -60.862
rfingers 7.12502
rthumb -0.569423 -269.159
lclavicle -5.56597e-014 8.26944e-014
lhumerus -30.3264 -29.0477 86.9065
lradius 75.4906
lwrist 65.1007
lhand -13.13 -7.77835
lfingers 7.12502
lthumb 12.9678 21.7986
rfemur -59.0211 -11.2901 12.3955
rtibia 78.4949
rfoot -33.6919 -11.0384
rtoes -6.56287
lfemur -56.7093 14.2755 -18.1286
ltibia 65.9783
lfoot -19.7701 7.79546
ltoes -29.6817
820
root 28.1528 14.3141 0.605198 -1.23056 118.198 -20.4512
lowerback 39.6547 1.13928 2.01416
upperback 9.89734 3.78985 -2.3994
thorax -7.95568 2.57079 -5.21393
lowerneck -30.9296 -12.0152 -12.7126
upperneck 15.9708 -12.1666 5.67979
head 11.2419 -5.59213 1.78842
rclavicle -5.40694e-014 4.77083e-014
rhumerus 10.0367 64.7064 -88.0611
rradius 50.3052
rwrist -51.4968
rhand -26.4973 -60.6074
rfingers 7.12502
rthumb 0.0654694 -269.413
lclavicle -5.40694e-014 4.77083e-014
lhumerus -30.5077 -29.4962 86.6496
lradius 75.9253
lwrist 65.1821
lhand -13.1112 -7.18073
lfingers 7.12502
lthumb 12.986 22.3951
rfemur -57.6317 -11.3111 12.6442
rtibia 78.4894
rfoot -34.0237 -10.9783
rtoes -7.35529
lfemur -56.1384 13.8813 -17.5012
ltibia 66.429
lfoot -19.8275 7.46115
ltoes -27.6825
821
root 28.2204 14.3029 0.50928 -0.525766 117.971 -19.0869
lowerback 39.4643 1.2326 1.82526
upperback 9.81755 3.79831 -2.49931
thorax -7.98592 2.56729 -5.22239
lowerneck -30.7964 -12.2447 -12.9748
upperneck 15.7431 -12.4586 5.99796
head 11.2026 -5.69906 1.88931
rclavicle -9.70069e-014 -3.89618e-014
rhumerus 9.41192 64.1753 -88.8199
rradius 50.2464
rwrist -51.7625
rhand -26.8648 -60.6887
rfingers 7.12502
rthumb -0.289483 -269.332
lclavicle -9.70069e-014 -3.89618e-014
lhumerus -30.4616 -29.893 86.4786
lradius 76.0435
lwrist 65.2266
lhand -13.4564 -6.73629
lfingers 7.12502
lthumb 12.6532 22.8604
rfemur -56.6923 -11.6005 13.166
rtibia 78.6059
rfoot -34.251 -11.0642
rtoes -8.42484
lfemur -55.7136 13.1696 -16.5424
ltibia 66.9868
lfoot -20.0182 7.95824
ltoes -24.3762
822
root 28.282 14.2775 0.395196 0.079075 117.392 -17.8651
lowerback 39.1848 1.47463 1.46401
upperback 9.73987 3.91172 -2.61978
thorax -7.98165 2.60998 -5.19894
lowerneck -30.7233 -12.3121 -12.8612
upperneck 15.5371 -12.5949 5.98644
head 11.1165 -5.75497 1.84635
rclavicle -7.31528e-014 1.98785e-014
rhumerus 8.78349 63.6763 -89.5954
rradius 49.8986
rwrist -52.1869
rhand -27.5916 -60.8569
rfingers 7.12502
rthumb -0.991425 -269.166
lclavicle -7.31528e-014 1.98785e-014
lhumerus -30.4586 -30.1857 86.447
lradius 76.0537
lwrist 65.1107
lhand -13.5213 -6.69078
lfingers 7.12502
lthumb 12.5907 22.9098
rfemur -55.9657 -11.7396 13.5933
rtibia 78.8376
rfoot -34.4044 -10.8539
rtoes -9.57947
lfemur -54.9919 12.5913 -15.5889
ltibia 67.6365
lfoot -20.5301 9.17833
ltoes -23.6749
823
root 28.3358 14.2474 0.275144 0.00888536 116.821 -17.4923
lowerback 38.8036 1.79011 0.797636
upperback 9.66531 3.99261 -2.84183
thorax -7.95015 2.64146 -5.10702
lowerneck -30.7202 -12.4927 -13.2523
upperneck 15.5025 -12.9364 6.9278
head 11.2409 -5.81233 2.17535
rclavicle 7.63333e-014 -5.40694e-014
rhumerus 8.20796 63.0364 -90.3757
rradius 49.3208
rwrist -52.6659
rhand -27.7148 -60.635
rfingers 7.12502
rthumb -1.11045 -269.388
lclavicle 7.63333e-014 -5.40694e-014
lhumerus -30.5087 -30.5458 86.572
lradius 75.8046
lwrist 65.0259
lhand -13.4102 -6.77428
lfingers 7.12502
lthumb 12.6978 22.8197
rfemur -55.483 -12.087 13.5556
rtibia 79.2925
rfoot -34.3196 -9.98612
rtoes -9.60385
lfemur -54.1398 11.892 -15.0898
ltibia 68.271
lfoot -21.4015 10.4382
ltoes -25.5974
824
root 28.3862 14.2216 0.155949 -0.0691526 116.4 -17.1646
lowerback 38.4903 2.02897 0.203356
upperback 9.55281 4.01333 -3.03159
thorax -7.98458 2.64188 -4.99932
lowerneck -30.7584 -12.5618 -13.2705
upperneck 15.4564 -13.1144 7.28013
head 11.2793 -5.84686 2.26896
rclavicle -9.06458e-014 -4.37326e-014
rhumerus 7.73031 62.386 -91.0688
rradius 48.4547
rwrist -53.1409
rhand -27.2229 -60.1214
rfingers 7.12502
rthumb -0.635379 -269.9
lclavicle -9.06458e-014 -4.37326e-014
lhumerus -30.6461 -30.8349 86.9055
lradius 75.3476
lwrist 64.9738
lhand -13.251 -6.64895
lfingers 7.12502
lthumb 12.8512 22.9354
rfemur -55.0546 -12.6182 13.4475
rtibia 79.9087
rfoot -33.9275 -8.6557
rtoes -8.66414
lfemur -53.2463 10.9851 -14.5939
ltibia 68.8258
lfoot -22.5221 11.3911
ltoes -26.7601
825
root 28.4398 14.2135 0.0442422 0.0602508 116.184 -16.5642
lowerback 38.2993 2.15058 -0.330758
upperback 9.46567 3.9359 -3.13202
thorax -8.03913 2.59978 -4.79397
lowerneck -30.8435 -12.596 -13.4055
upperneck 15.4049 -13.2281 7.78773
head 11.3395 -5.83774 2.44915
rclavicle 2.38542e-015 -2.06736e-014
rhumerus 7.44173 61.7935 -91.6742
rradius 47.4129
rwrist -53.5619
rhand -25.8439 -59.4961
rfingers 7.12502
rthumb 0.696486 -449.475
lclavicle 2.38542e-015 -2.06736e-014
lhumerus -30.6497 -31.1549 87.2534
lradius 74.6479
lwrist 65.257
lhand -13.5958 -6.3316
lfingers 7.12502
lthumb 12.5188 23.2734
rfemur -54.643 -13.1945 13.3528
rtibia 80.7319
rfoot -33.3628 -7.46945
rtoes -9.40761
lfemur -52.4615 10.0262 -14.0603
ltibia 69.373
lfoot -23.4974 12.2114
ltoes -27.1453
826
root 28.512 14.2191 -0.0721991 0.247786 115.613 -15.6638
lowerback 38.2583 2.43641 -0.789833
upperback 9.46702 4.10522 -3.28224
thorax -8.02134 2.68425 -4.7782
lowerneck -30.7368 -12.71 -13.5557
upperneck 15.1821 -13.5415 8.58357
head 11.3555 -5.8893 2.70212
rclavicle 1.19271e-014 -3.97569e-015
rhumerus 7.0209 60.8196 -92.5503
rradius 46.4478
rwrist -53.87
rhand -24.8122 -58.9247
rfingers 7.12502
rthumb 1.69296 -448.898
lclavicle 1.19271e-014 -3.97569e-015
lhumerus -30.2047 -32.1517 87.2431
lradius 73.7288
lwrist 65.7821
lhand -14.3897 -6.35612
lfingers 7.12502
lthumb 11.7533 23.2941
rfemur -54.2003 -13.3749 13.2621
rtibia 81.8024
rfoot -32.053 -6.26968
rtoes -10.5927
lfemur -51.3155 9.66484 -13.51
ltibia 69.9255
lfoot -24.4691 13.023
ltoes -27.3345
827
root 28.5777 14.1958 -0.196827 1.51299 114.818 -14.1542
lowerback 37.6027 2.80638 -0.924476
upperback 9.39255 4.46794 -3.40209
thorax -7.85698 2.83862 -4.9424
lowerneck -30.4717 -12.7609 -13.4518
upperneck 14.9996 -13.837 9.12677
head 11.3224 -5.95778 2.83228
rclavicle 2.94201e-014 -6.36111e-015
rhumerus 6.22702 59.5738 -93.6801
rradius 45.76
rwrist -53.8574
rhand -24.7267 -58.6511
rfingers 7.12502
rthumb 1.77548 -448.623
lclavicle 2.94201e-014 -6.36111e-015
lhumerus -29.9909 -33.2719 87.2003
lradius 73.2033
lwrist 65.7554
lhand -14.9604 -6.47778
lfingers 7.12502
lthumb 11.203 23.2031
rfemur -54.9037 -13.5668 13.507
rtibia 83.353
rfoot -29.5326 -4.47884
rtoes -9.20737
lfemur -50.7422 9.69949 -12.8234
ltibia 70.6256
lfoot -25.7277 13.3652
ltoes -26.5701
